<?xml version="1.0" encoding="utf-8" standalone="no"?>
<!DOCTYPE svg PUBLIC "-//W3C//DTD SVG 1.1//EN"
  "http://www.w3.org/Graphics/SVG/1.1/DTD/svg11.dtd">
<svg xmlns:xlink="http://www.w3.org/1999/xlink" width="1080pt" height="288pt" viewBox="0 0 1080 288" xmlns="http://www.w3.org/2000/svg" version="1.1">
 <metadata>
  <rdf:RDF xmlns:dc="http://purl.org/dc/elements/1.1/" xmlns:cc="http://creativecommons.org/ns#" xmlns:rdf="http://www.w3.org/1999/02/22-rdf-syntax-ns#">
   <cc:Work>
    <dc:type rdf:resource="http://purl.org/dc/dcmitype/StillImage"/>
    <dc:date>2026-02-02T13:01:27.691740</dc:date>
    <dc:format>image/svg+xml</dc:format>
    <dc:creator>
     <cc:Agent>
      <dc:title>Matplotlib v3.10.0, https://matplotlib.org/</dc:title>
     </cc:Agent>
    </dc:creator>
   </cc:Work>
  </rdf:RDF>
 </metadata>
 <defs>
  <style type="text/css">*{stroke-linejoin: round; stroke-linecap: butt}</style>
 </defs>
 <g id="figure_1">
  <g id="patch_1">
   <path d="M 0 288 
L 1080 288 
L 1080 0 
L 0 0 
z
" style="fill: #ffffff"/>
  </g>
  <g id="axes_1">
   <g id="patch_2">
    <path d="M 34.97 255.46 
L 1067.04 255.46 
L 1067.04 39.6 
L 34.97 39.6 
z
" style="fill: #ffffff"/>
   </g>
   <g id="matplotlib.axis_1">
    <g id="xtick_1">
     <g id="line2d_1">
      <defs>
       <path id="m585346b47e" d="M 0 0 
L 0 6 
" style="stroke: #262626; stroke-width: 1.25"/>
      </defs>
      <g>
       <use xlink:href="#m585346b47e" x="163.97875" y="255.46" style="fill: #262626; stroke: #262626; stroke-width: 1.25"/>
      </g>
     </g>
     <g id="text_1">
      <!-- LotFrontage -->
      <g style="fill: #262626" transform="translate(134.322578 272.833594) scale(0.11 -0.11)">
       <defs>
        <path id="ArialMT-4c" d="M 469 0 
L 469 4581 
L 1075 4581 
L 1075 541 
L 3331 541 
L 3331 0 
L 469 0 
z
" transform="scale(0.015625)"/>
        <path id="ArialMT-6f" d="M 213 1659 
Q 213 2581 725 3025 
Q 1153 3394 1769 3394 
Q 2453 3394 2887 2945 
Q 3322 2497 3322 1706 
Q 3322 1066 3130 698 
Q 2938 331 2570 128 
Q 2203 -75 1769 -75 
Q 1072 -75 642 372 
Q 213 819 213 1659 
z
M 791 1659 
Q 791 1022 1069 705 
Q 1347 388 1769 388 
Q 2188 388 2466 706 
Q 2744 1025 2744 1678 
Q 2744 2294 2464 2611 
Q 2184 2928 1769 2928 
Q 1347 2928 1069 2612 
Q 791 2297 791 1659 
z
" transform="scale(0.015625)"/>
        <path id="ArialMT-74" d="M 1650 503 
L 1731 6 
Q 1494 -44 1306 -44 
Q 1000 -44 831 53 
Q 663 150 594 308 
Q 525 466 525 972 
L 525 2881 
L 113 2881 
L 113 3319 
L 525 3319 
L 525 4141 
L 1084 4478 
L 1084 3319 
L 1650 3319 
L 1650 2881 
L 1084 2881 
L 1084 941 
Q 1084 700 1114 631 
Q 1144 563 1211 522 
Q 1278 481 1403 481 
Q 1497 481 1650 503 
z
" transform="scale(0.015625)"/>
        <path id="ArialMT-46" d="M 525 0 
L 525 4581 
L 3616 4581 
L 3616 4041 
L 1131 4041 
L 1131 2622 
L 3281 2622 
L 3281 2081 
L 1131 2081 
L 1131 0 
L 525 0 
z
" transform="scale(0.015625)"/>
        <path id="ArialMT-72" d="M 416 0 
L 416 3319 
L 922 3319 
L 922 2816 
Q 1116 3169 1280 3281 
Q 1444 3394 1641 3394 
Q 1925 3394 2219 3213 
L 2025 2691 
Q 1819 2813 1613 2813 
Q 1428 2813 1281 2702 
Q 1134 2591 1072 2394 
Q 978 2094 978 1738 
L 978 0 
L 416 0 
z
" transform="scale(0.015625)"/>
        <path id="ArialMT-6e" d="M 422 0 
L 422 3319 
L 928 3319 
L 928 2847 
Q 1294 3394 1984 3394 
Q 2284 3394 2536 3286 
Q 2788 3178 2913 3003 
Q 3038 2828 3088 2588 
Q 3119 2431 3119 2041 
L 3119 0 
L 2556 0 
L 2556 2019 
Q 2556 2363 2490 2533 
Q 2425 2703 2258 2804 
Q 2091 2906 1866 2906 
Q 1506 2906 1245 2678 
Q 984 2450 984 1813 
L 984 0 
L 422 0 
z
" transform="scale(0.015625)"/>
        <path id="ArialMT-61" d="M 2588 409 
Q 2275 144 1986 34 
Q 1697 -75 1366 -75 
Q 819 -75 525 192 
Q 231 459 231 875 
Q 231 1119 342 1320 
Q 453 1522 633 1644 
Q 813 1766 1038 1828 
Q 1203 1872 1538 1913 
Q 2219 1994 2541 2106 
Q 2544 2222 2544 2253 
Q 2544 2597 2384 2738 
Q 2169 2928 1744 2928 
Q 1347 2928 1158 2789 
Q 969 2650 878 2297 
L 328 2372 
Q 403 2725 575 2942 
Q 747 3159 1072 3276 
Q 1397 3394 1825 3394 
Q 2250 3394 2515 3294 
Q 2781 3194 2906 3042 
Q 3031 2891 3081 2659 
Q 3109 2516 3109 2141 
L 3109 1391 
Q 3109 606 3145 398 
Q 3181 191 3288 0 
L 2700 0 
Q 2613 175 2588 409 
z
M 2541 1666 
Q 2234 1541 1622 1453 
Q 1275 1403 1131 1340 
Q 988 1278 909 1158 
Q 831 1038 831 891 
Q 831 666 1001 516 
Q 1172 366 1500 366 
Q 1825 366 2078 508 
Q 2331 650 2450 897 
Q 2541 1088 2541 1459 
L 2541 1666 
z
" transform="scale(0.015625)"/>
        <path id="ArialMT-67" d="M 319 -275 
L 866 -356 
Q 900 -609 1056 -725 
Q 1266 -881 1628 -881 
Q 2019 -881 2231 -725 
Q 2444 -569 2519 -288 
Q 2563 -116 2559 434 
Q 2191 0 1641 0 
Q 956 0 581 494 
Q 206 988 206 1678 
Q 206 2153 378 2554 
Q 550 2956 876 3175 
Q 1203 3394 1644 3394 
Q 2231 3394 2613 2919 
L 2613 3319 
L 3131 3319 
L 3131 450 
Q 3131 -325 2973 -648 
Q 2816 -972 2473 -1159 
Q 2131 -1347 1631 -1347 
Q 1038 -1347 672 -1080 
Q 306 -813 319 -275 
z
M 784 1719 
Q 784 1066 1043 766 
Q 1303 466 1694 466 
Q 2081 466 2343 764 
Q 2606 1063 2606 1700 
Q 2606 2309 2336 2618 
Q 2066 2928 1684 2928 
Q 1309 2928 1046 2623 
Q 784 2319 784 1719 
z
" transform="scale(0.015625)"/>
        <path id="ArialMT-65" d="M 2694 1069 
L 3275 997 
Q 3138 488 2766 206 
Q 2394 -75 1816 -75 
Q 1088 -75 661 373 
Q 234 822 234 1631 
Q 234 2469 665 2931 
Q 1097 3394 1784 3394 
Q 2450 3394 2872 2941 
Q 3294 2488 3294 1666 
Q 3294 1616 3291 1516 
L 816 1516 
Q 847 969 1125 678 
Q 1403 388 1819 388 
Q 2128 388 2347 550 
Q 2566 713 2694 1069 
z
M 847 1978 
L 2700 1978 
Q 2663 2397 2488 2606 
Q 2219 2931 1791 2931 
Q 1403 2931 1139 2672 
Q 875 2413 847 1978 
z
" transform="scale(0.015625)"/>
       </defs>
       <use xlink:href="#ArialMT-4c"/>
       <use xlink:href="#ArialMT-6f" transform="translate(55.615234 0)"/>
       <use xlink:href="#ArialMT-74" transform="translate(111.230469 0)"/>
       <use xlink:href="#ArialMT-46" transform="translate(139.013672 0)"/>
       <use xlink:href="#ArialMT-72" transform="translate(200.097656 0)"/>
       <use xlink:href="#ArialMT-6f" transform="translate(233.398438 0)"/>
       <use xlink:href="#ArialMT-6e" transform="translate(289.013672 0)"/>
       <use xlink:href="#ArialMT-74" transform="translate(344.628906 0)"/>
       <use xlink:href="#ArialMT-61" transform="translate(372.412109 0)"/>
       <use xlink:href="#ArialMT-67" transform="translate(428.027344 0)"/>
       <use xlink:href="#ArialMT-65" transform="translate(483.642578 0)"/>
      </g>
     </g>
    </g>
    <g id="xtick_2">
     <g id="line2d_2">
      <g>
       <use xlink:href="#m585346b47e" x="421.99625" y="255.46" style="fill: #262626; stroke: #262626; stroke-width: 1.25"/>
      </g>
     </g>
     <g id="text_2">
      <!-- MasVnrArea -->
      <g style="fill: #262626" transform="translate(391.430859 272.833594) scale(0.11 -0.11)">
       <defs>
        <path id="ArialMT-4d" d="M 475 0 
L 475 4581 
L 1388 4581 
L 2472 1338 
Q 2622 884 2691 659 
Q 2769 909 2934 1394 
L 4031 4581 
L 4847 4581 
L 4847 0 
L 4263 0 
L 4263 3834 
L 2931 0 
L 2384 0 
L 1059 3900 
L 1059 0 
L 475 0 
z
" transform="scale(0.015625)"/>
        <path id="ArialMT-73" d="M 197 991 
L 753 1078 
Q 800 744 1014 566 
Q 1228 388 1613 388 
Q 2000 388 2187 545 
Q 2375 703 2375 916 
Q 2375 1106 2209 1216 
Q 2094 1291 1634 1406 
Q 1016 1563 777 1677 
Q 538 1791 414 1992 
Q 291 2194 291 2438 
Q 291 2659 392 2848 
Q 494 3038 669 3163 
Q 800 3259 1026 3326 
Q 1253 3394 1513 3394 
Q 1903 3394 2198 3281 
Q 2494 3169 2634 2976 
Q 2775 2784 2828 2463 
L 2278 2388 
Q 2241 2644 2061 2787 
Q 1881 2931 1553 2931 
Q 1166 2931 1000 2803 
Q 834 2675 834 2503 
Q 834 2394 903 2306 
Q 972 2216 1119 2156 
Q 1203 2125 1616 2013 
Q 2213 1853 2448 1751 
Q 2684 1650 2818 1456 
Q 2953 1263 2953 975 
Q 2953 694 2789 445 
Q 2625 197 2315 61 
Q 2006 -75 1616 -75 
Q 969 -75 630 194 
Q 291 463 197 991 
z
" transform="scale(0.015625)"/>
        <path id="ArialMT-56" d="M 1803 0 
L 28 4581 
L 684 4581 
L 1875 1253 
Q 2019 853 2116 503 
Q 2222 878 2363 1253 
L 3600 4581 
L 4219 4581 
L 2425 0 
L 1803 0 
z
" transform="scale(0.015625)"/>
        <path id="ArialMT-41" d="M -9 0 
L 1750 4581 
L 2403 4581 
L 4278 0 
L 3588 0 
L 3053 1388 
L 1138 1388 
L 634 0 
L -9 0 
z
M 1313 1881 
L 2866 1881 
L 2388 3150 
Q 2169 3728 2063 4100 
Q 1975 3659 1816 3225 
L 1313 1881 
z
" transform="scale(0.015625)"/>
       </defs>
       <use xlink:href="#ArialMT-4d"/>
       <use xlink:href="#ArialMT-61" transform="translate(83.300781 0)"/>
       <use xlink:href="#ArialMT-73" transform="translate(138.916016 0)"/>
       <use xlink:href="#ArialMT-56" transform="translate(188.916016 0)"/>
       <use xlink:href="#ArialMT-6e" transform="translate(255.615234 0)"/>
       <use xlink:href="#ArialMT-72" transform="translate(311.230469 0)"/>
       <use xlink:href="#ArialMT-41" transform="translate(344.53125 0)"/>
       <use xlink:href="#ArialMT-72" transform="translate(411.230469 0)"/>
       <use xlink:href="#ArialMT-65" transform="translate(444.53125 0)"/>
       <use xlink:href="#ArialMT-61" transform="translate(500.146484 0)"/>
      </g>
     </g>
    </g>
    <g id="xtick_3">
     <g id="line2d_3">
      <g>
       <use xlink:href="#m585346b47e" x="680.01375" y="255.46" style="fill: #262626; stroke: #262626; stroke-width: 1.25"/>
      </g>
     </g>
     <g id="text_3">
      <!-- GarageYrBlt -->
      <g style="fill: #262626" transform="translate(649.751719 272.967656) scale(0.11 -0.11)">
       <defs>
        <path id="ArialMT-47" d="M 2638 1797 
L 2638 2334 
L 4578 2338 
L 4578 638 
Q 4131 281 3656 101 
Q 3181 -78 2681 -78 
Q 2006 -78 1454 211 
Q 903 500 622 1047 
Q 341 1594 341 2269 
Q 341 2938 620 3517 
Q 900 4097 1425 4378 
Q 1950 4659 2634 4659 
Q 3131 4659 3532 4498 
Q 3934 4338 4162 4050 
Q 4391 3763 4509 3300 
L 3963 3150 
Q 3859 3500 3706 3700 
Q 3553 3900 3268 4020 
Q 2984 4141 2638 4141 
Q 2222 4141 1919 4014 
Q 1616 3888 1430 3681 
Q 1244 3475 1141 3228 
Q 966 2803 966 2306 
Q 966 1694 1177 1281 
Q 1388 869 1791 669 
Q 2194 469 2647 469 
Q 3041 469 3416 620 
Q 3791 772 3984 944 
L 3984 1797 
L 2638 1797 
z
" transform="scale(0.015625)"/>
        <path id="ArialMT-59" d="M 1784 0 
L 1784 1941 
L 19 4581 
L 756 4581 
L 1659 3200 
Q 1909 2813 2125 2425 
Q 2331 2784 2625 3234 
L 3513 4581 
L 4219 4581 
L 2391 1941 
L 2391 0 
L 1784 0 
z
" transform="scale(0.015625)"/>
        <path id="ArialMT-42" d="M 469 0 
L 469 4581 
L 2188 4581 
Q 2713 4581 3030 4442 
Q 3347 4303 3526 4014 
Q 3706 3725 3706 3409 
Q 3706 3116 3547 2856 
Q 3388 2597 3066 2438 
Q 3481 2316 3704 2022 
Q 3928 1728 3928 1328 
Q 3928 1006 3792 729 
Q 3656 453 3456 303 
Q 3256 153 2954 76 
Q 2653 0 2216 0 
L 469 0 
z
M 1075 2656 
L 2066 2656 
Q 2469 2656 2644 2709 
Q 2875 2778 2992 2937 
Q 3109 3097 3109 3338 
Q 3109 3566 3000 3739 
Q 2891 3913 2687 3977 
Q 2484 4041 1991 4041 
L 1075 4041 
L 1075 2656 
z
M 1075 541 
L 2216 541 
Q 2509 541 2628 563 
Q 2838 600 2978 687 
Q 3119 775 3209 942 
Q 3300 1109 3300 1328 
Q 3300 1584 3169 1773 
Q 3038 1963 2805 2039 
Q 2572 2116 2134 2116 
L 1075 2116 
L 1075 541 
z
" transform="scale(0.015625)"/>
        <path id="ArialMT-6c" d="M 409 0 
L 409 4581 
L 972 4581 
L 972 0 
L 409 0 
z
" transform="scale(0.015625)"/>
       </defs>
       <use xlink:href="#ArialMT-47"/>
       <use xlink:href="#ArialMT-61" transform="translate(77.783203 0)"/>
       <use xlink:href="#ArialMT-72" transform="translate(133.398438 0)"/>
       <use xlink:href="#ArialMT-61" transform="translate(166.699219 0)"/>
       <use xlink:href="#ArialMT-67" transform="translate(222.314453 0)"/>
       <use xlink:href="#ArialMT-65" transform="translate(277.929688 0)"/>
       <use xlink:href="#ArialMT-59" transform="translate(333.544922 0)"/>
       <use xlink:href="#ArialMT-72" transform="translate(400.244141 0)"/>
       <use xlink:href="#ArialMT-42" transform="translate(433.544922 0)"/>
       <use xlink:href="#ArialMT-6c" transform="translate(500.244141 0)"/>
       <use xlink:href="#ArialMT-74" transform="translate(522.460938 0)"/>
      </g>
     </g>
    </g>
    <g id="xtick_4">
     <g id="line2d_4">
      <g>
       <use xlink:href="#m585346b47e" x="938.03125" y="255.46" style="fill: #262626; stroke: #262626; stroke-width: 1.25"/>
      </g>
     </g>
     <g id="text_4">
      <!-- SalePrice -->
      <g style="fill: #262626" transform="translate(914.492969 272.833594) scale(0.11 -0.11)">
       <defs>
        <path id="ArialMT-53" d="M 288 1472 
L 859 1522 
Q 900 1178 1048 958 
Q 1197 738 1509 602 
Q 1822 466 2213 466 
Q 2559 466 2825 569 
Q 3091 672 3220 851 
Q 3350 1031 3350 1244 
Q 3350 1459 3225 1620 
Q 3100 1781 2813 1891 
Q 2628 1963 1997 2114 
Q 1366 2266 1113 2400 
Q 784 2572 623 2826 
Q 463 3081 463 3397 
Q 463 3744 659 4045 
Q 856 4347 1234 4503 
Q 1613 4659 2075 4659 
Q 2584 4659 2973 4495 
Q 3363 4331 3572 4012 
Q 3781 3694 3797 3291 
L 3216 3247 
Q 3169 3681 2898 3903 
Q 2628 4125 2100 4125 
Q 1550 4125 1298 3923 
Q 1047 3722 1047 3438 
Q 1047 3191 1225 3031 
Q 1400 2872 2139 2705 
Q 2878 2538 3153 2413 
Q 3553 2228 3743 1945 
Q 3934 1663 3934 1294 
Q 3934 928 3725 604 
Q 3516 281 3123 101 
Q 2731 -78 2241 -78 
Q 1619 -78 1198 103 
Q 778 284 539 648 
Q 300 1013 288 1472 
z
" transform="scale(0.015625)"/>
        <path id="ArialMT-50" d="M 494 0 
L 494 4581 
L 2222 4581 
Q 2678 4581 2919 4538 
Q 3256 4481 3484 4323 
Q 3713 4166 3852 3881 
Q 3991 3597 3991 3256 
Q 3991 2672 3619 2267 
Q 3247 1863 2275 1863 
L 1100 1863 
L 1100 0 
L 494 0 
z
M 1100 2403 
L 2284 2403 
Q 2872 2403 3119 2622 
Q 3366 2841 3366 3238 
Q 3366 3525 3220 3729 
Q 3075 3934 2838 4000 
Q 2684 4041 2272 4041 
L 1100 4041 
L 1100 2403 
z
" transform="scale(0.015625)"/>
        <path id="ArialMT-69" d="M 425 3934 
L 425 4581 
L 988 4581 
L 988 3934 
L 425 3934 
z
M 425 0 
L 425 3319 
L 988 3319 
L 988 0 
L 425 0 
z
" transform="scale(0.015625)"/>
        <path id="ArialMT-63" d="M 2588 1216 
L 3141 1144 
Q 3050 572 2676 248 
Q 2303 -75 1759 -75 
Q 1078 -75 664 370 
Q 250 816 250 1647 
Q 250 2184 428 2587 
Q 606 2991 970 3192 
Q 1334 3394 1763 3394 
Q 2303 3394 2647 3120 
Q 2991 2847 3088 2344 
L 2541 2259 
Q 2463 2594 2264 2762 
Q 2066 2931 1784 2931 
Q 1359 2931 1093 2626 
Q 828 2322 828 1663 
Q 828 994 1084 691 
Q 1341 388 1753 388 
Q 2084 388 2306 591 
Q 2528 794 2588 1216 
z
" transform="scale(0.015625)"/>
       </defs>
       <use xlink:href="#ArialMT-53"/>
       <use xlink:href="#ArialMT-61" transform="translate(66.699219 0)"/>
       <use xlink:href="#ArialMT-6c" transform="translate(122.314453 0)"/>
       <use xlink:href="#ArialMT-65" transform="translate(144.53125 0)"/>
       <use xlink:href="#ArialMT-50" transform="translate(200.146484 0)"/>
       <use xlink:href="#ArialMT-72" transform="translate(266.845703 0)"/>
       <use xlink:href="#ArialMT-69" transform="translate(300.146484 0)"/>
       <use xlink:href="#ArialMT-63" transform="translate(322.363281 0)"/>
       <use xlink:href="#ArialMT-65" transform="translate(372.363281 0)"/>
      </g>
     </g>
    </g>
   </g>
   <g id="matplotlib.axis_2">
    <g id="ytick_1">
     <g id="line2d_5">
      <defs>
       <path id="m2f0bea0317" d="M 0 0 
L -6 0 
" style="stroke: #262626; stroke-width: 1.25"/>
      </defs>
      <g>
       <use xlink:href="#m2f0bea0317" x="34.97" y="250.494441" style="fill: #262626; stroke: #262626; stroke-width: 1.25"/>
      </g>
     </g>
     <g id="text_5">
      <!-- −4 -->
      <g style="fill: #262626" transform="translate(12.928281 254.431238) scale(0.11 -0.11)">
       <defs>
        <path id="ArialMT-2212" d="M 3381 1997 
L 356 1997 
L 356 2522 
L 3381 2522 
L 3381 1997 
z
" transform="scale(0.015625)"/>
        <path id="ArialMT-34" d="M 2069 0 
L 2069 1097 
L 81 1097 
L 81 1613 
L 2172 4581 
L 2631 4581 
L 2631 1613 
L 3250 1613 
L 3250 1097 
L 2631 1097 
L 2631 0 
L 2069 0 
z
M 2069 1613 
L 2069 3678 
L 634 1613 
L 2069 1613 
z
" transform="scale(0.015625)"/>
       </defs>
       <use xlink:href="#ArialMT-2212"/>
       <use xlink:href="#ArialMT-34" transform="translate(58.398438 0)"/>
      </g>
     </g>
    </g>
    <g id="ytick_2">
     <g id="line2d_6">
      <g>
       <use xlink:href="#m2f0bea0317" x="34.97" y="222.736949" style="fill: #262626; stroke: #262626; stroke-width: 1.25"/>
      </g>
     </g>
     <g id="text_6">
      <!-- −2 -->
      <g style="fill: #262626" transform="translate(12.928281 226.673745) scale(0.11 -0.11)">
       <defs>
        <path id="ArialMT-32" d="M 3222 541 
L 3222 0 
L 194 0 
Q 188 203 259 391 
Q 375 700 629 1000 
Q 884 1300 1366 1694 
Q 2113 2306 2375 2664 
Q 2638 3022 2638 3341 
Q 2638 3675 2398 3904 
Q 2159 4134 1775 4134 
Q 1369 4134 1125 3890 
Q 881 3647 878 3216 
L 300 3275 
Q 359 3922 746 4261 
Q 1134 4600 1788 4600 
Q 2447 4600 2831 4234 
Q 3216 3869 3216 3328 
Q 3216 3053 3103 2787 
Q 2991 2522 2730 2228 
Q 2469 1934 1863 1422 
Q 1356 997 1212 845 
Q 1069 694 975 541 
L 3222 541 
z
" transform="scale(0.015625)"/>
       </defs>
       <use xlink:href="#ArialMT-2212"/>
       <use xlink:href="#ArialMT-32" transform="translate(58.398438 0)"/>
      </g>
     </g>
    </g>
    <g id="ytick_3">
     <g id="line2d_7">
      <g>
       <use xlink:href="#m2f0bea0317" x="34.97" y="194.979456" style="fill: #262626; stroke: #262626; stroke-width: 1.25"/>
      </g>
     </g>
     <g id="text_7">
      <!-- 0 -->
      <g style="fill: #262626" transform="translate(19.352969 198.916253) scale(0.11 -0.11)">
       <defs>
        <path id="ArialMT-30" d="M 266 2259 
Q 266 3072 433 3567 
Q 600 4063 929 4331 
Q 1259 4600 1759 4600 
Q 2128 4600 2406 4451 
Q 2684 4303 2865 4023 
Q 3047 3744 3150 3342 
Q 3253 2941 3253 2259 
Q 3253 1453 3087 958 
Q 2922 463 2592 192 
Q 2263 -78 1759 -78 
Q 1097 -78 719 397 
Q 266 969 266 2259 
z
M 844 2259 
Q 844 1131 1108 757 
Q 1372 384 1759 384 
Q 2147 384 2411 759 
Q 2675 1134 2675 2259 
Q 2675 3391 2411 3762 
Q 2147 4134 1753 4134 
Q 1366 4134 1134 3806 
Q 844 3388 844 2259 
z
" transform="scale(0.015625)"/>
       </defs>
       <use xlink:href="#ArialMT-30"/>
      </g>
     </g>
    </g>
    <g id="ytick_4">
     <g id="line2d_8">
      <g>
       <use xlink:href="#m2f0bea0317" x="34.97" y="167.221964" style="fill: #262626; stroke: #262626; stroke-width: 1.25"/>
      </g>
     </g>
     <g id="text_8">
      <!-- 2 -->
      <g style="fill: #262626" transform="translate(19.352969 171.158761) scale(0.11 -0.11)">
       <use xlink:href="#ArialMT-32"/>
      </g>
     </g>
    </g>
    <g id="ytick_5">
     <g id="line2d_9">
      <g>
       <use xlink:href="#m2f0bea0317" x="34.97" y="139.464472" style="fill: #262626; stroke: #262626; stroke-width: 1.25"/>
      </g>
     </g>
     <g id="text_9">
      <!-- 4 -->
      <g style="fill: #262626" transform="translate(19.352969 143.401268) scale(0.11 -0.11)">
       <use xlink:href="#ArialMT-34"/>
      </g>
     </g>
    </g>
    <g id="ytick_6">
     <g id="line2d_10">
      <g>
       <use xlink:href="#m2f0bea0317" x="34.97" y="111.706979" style="fill: #262626; stroke: #262626; stroke-width: 1.25"/>
      </g>
     </g>
     <g id="text_10">
      <!-- 6 -->
      <g style="fill: #262626" transform="translate(19.352969 115.643776) scale(0.11 -0.11)">
       <defs>
        <path id="ArialMT-36" d="M 3184 3459 
L 2625 3416 
Q 2550 3747 2413 3897 
Q 2184 4138 1850 4138 
Q 1581 4138 1378 3988 
Q 1113 3794 959 3422 
Q 806 3050 800 2363 
Q 1003 2672 1297 2822 
Q 1591 2972 1913 2972 
Q 2475 2972 2870 2558 
Q 3266 2144 3266 1488 
Q 3266 1056 3080 686 
Q 2894 316 2569 119 
Q 2244 -78 1831 -78 
Q 1128 -78 684 439 
Q 241 956 241 2144 
Q 241 3472 731 4075 
Q 1159 4600 1884 4600 
Q 2425 4600 2770 4297 
Q 3116 3994 3184 3459 
z
M 888 1484 
Q 888 1194 1011 928 
Q 1134 663 1356 523 
Q 1578 384 1822 384 
Q 2178 384 2434 671 
Q 2691 959 2691 1453 
Q 2691 1928 2437 2201 
Q 2184 2475 1800 2475 
Q 1419 2475 1153 2201 
Q 888 1928 888 1484 
z
" transform="scale(0.015625)"/>
       </defs>
       <use xlink:href="#ArialMT-36"/>
      </g>
     </g>
    </g>
    <g id="ytick_7">
     <g id="line2d_11">
      <g>
       <use xlink:href="#m2f0bea0317" x="34.97" y="83.949487" style="fill: #262626; stroke: #262626; stroke-width: 1.25"/>
      </g>
     </g>
     <g id="text_11">
      <!-- 8 -->
      <g style="fill: #262626" transform="translate(19.352969 87.886284) scale(0.11 -0.11)">
       <defs>
        <path id="ArialMT-38" d="M 1131 2484 
Q 781 2613 612 2850 
Q 444 3088 444 3419 
Q 444 3919 803 4259 
Q 1163 4600 1759 4600 
Q 2359 4600 2725 4251 
Q 3091 3903 3091 3403 
Q 3091 3084 2923 2848 
Q 2756 2613 2416 2484 
Q 2838 2347 3058 2040 
Q 3278 1734 3278 1309 
Q 3278 722 2862 322 
Q 2447 -78 1769 -78 
Q 1091 -78 675 323 
Q 259 725 259 1325 
Q 259 1772 486 2073 
Q 713 2375 1131 2484 
z
M 1019 3438 
Q 1019 3113 1228 2906 
Q 1438 2700 1772 2700 
Q 2097 2700 2305 2904 
Q 2513 3109 2513 3406 
Q 2513 3716 2298 3927 
Q 2084 4138 1766 4138 
Q 1444 4138 1231 3931 
Q 1019 3725 1019 3438 
z
M 838 1322 
Q 838 1081 952 856 
Q 1066 631 1291 507 
Q 1516 384 1775 384 
Q 2178 384 2440 643 
Q 2703 903 2703 1303 
Q 2703 1709 2433 1975 
Q 2163 2241 1756 2241 
Q 1359 2241 1098 1978 
Q 838 1716 838 1322 
z
" transform="scale(0.015625)"/>
       </defs>
       <use xlink:href="#ArialMT-38"/>
      </g>
     </g>
    </g>
    <g id="ytick_8">
     <g id="line2d_12">
      <g>
       <use xlink:href="#m2f0bea0317" x="34.97" y="56.191995" style="fill: #262626; stroke: #262626; stroke-width: 1.25"/>
      </g>
     </g>
     <g id="text_12">
      <!-- 10 -->
      <g style="fill: #262626" transform="translate(13.235938 60.128791) scale(0.11 -0.11)">
       <defs>
        <path id="ArialMT-31" d="M 2384 0 
L 1822 0 
L 1822 3584 
Q 1619 3391 1289 3197 
Q 959 3003 697 2906 
L 697 3450 
Q 1169 3672 1522 3987 
Q 1875 4303 2022 4600 
L 2384 4600 
L 2384 0 
z
" transform="scale(0.015625)"/>
       </defs>
       <use xlink:href="#ArialMT-31"/>
       <use xlink:href="#ArialMT-30" transform="translate(55.615234 0)"/>
      </g>
     </g>
    </g>
   </g>
   <g id="FillBetweenPolyCollection_1">
    <defs>
     <path id="md818378d1e" d="M 165.077965 -58.266887 
L 162.879535 -58.266887 
L 160.969743 -60.088315 
L 157.694457 -61.909742 
L 153.819303 -63.731169 
L 150.849904 -65.552596 
L 149.464687 -67.374023 
L 148.660958 -69.195451 
L 147.025163 -71.016878 
L 144.180976 -72.838305 
L 140.322808 -74.659732 
L 135.009562 -76.48116 
L 127.3086 -78.302587 
L 116.936434 -80.124014 
L 104.378562 -81.945441 
L 90.184368 -83.766868 
L 75.913516 -85.588296 
L 65.169632 -87.409723 
L 60.77175 -89.23115 
L 61.515152 -91.052577 
L 64.128138 -92.874004 
L 67.192808 -94.695432 
L 71.727072 -96.516859 
L 79.229648 -98.338286 
L 89.870356 -100.159713 
L 102.090072 -101.981141 
L 113.778002 -103.802568 
L 123.629415 -105.623995 
L 131.38845 -107.445422 
L 137.410581 -109.266849 
L 142.258895 -111.088277 
L 146.394391 -112.909704 
L 149.988907 -114.731131 
L 152.930411 -116.552558 
L 155.039233 -118.373986 
L 156.407253 -120.195413 
L 157.439487 -122.01684 
L 158.455027 -123.838267 
L 159.437055 -125.659694 
L 160.251519 -127.481122 
L 160.879678 -129.302549 
L 161.379467 -131.123976 
L 161.785779 -132.945403 
L 162.090289 -134.76683 
L 162.285374 -136.588258 
L 162.428777 -138.409685 
L 162.618557 -140.231112 
L 162.878617 -142.052539 
L 163.127457 -143.873967 
L 163.27072 -145.695394 
L 163.280366 -147.516821 
L 163.203075 -149.338248 
L 163.130763 -151.159675 
L 163.142939 -152.981103 
L 163.254174 -154.80253 
L 163.424424 -156.623957 
L 163.607008 -158.445384 
L 163.767235 -160.266812 
L 163.881051 -162.088239 
L 163.943432 -163.909666 
L 163.968987 -165.731093 
L 163.976712 -167.55252 
L 163.978431 -169.373948 
L 163.978713 -171.195375 
L 163.978747 -173.016802 
L 163.97875 -174.838229 
L 163.97875 -176.659656 
L 163.97875 -178.481084 
L 163.97875 -180.302511 
L 163.97875 -182.123938 
L 163.97875 -183.945365 
L 163.97875 -185.766793 
L 163.97875 -187.58822 
L 163.97875 -189.409647 
L 163.97875 -191.231074 
L 163.97875 -193.052501 
L 163.97875 -194.873929 
L 163.97875 -196.695356 
L 163.97875 -198.516783 
L 163.97875 -200.33821 
L 163.97875 -202.159637 
L 163.97875 -203.981065 
L 163.97875 -205.802492 
L 163.97875 -207.623919 
L 163.97875 -209.445346 
L 163.97875 -211.266774 
L 163.97875 -213.088201 
L 163.978748 -214.909628 
L 163.978728 -216.731055 
L 163.978532 -218.552482 
L 163.97714 -220.37391 
L 163.969878 -222.195337 
L 163.942312 -224.016764 
L 163.867185 -225.838191 
L 163.7241 -227.659619 
L 163.545443 -229.481046 
L 163.4291 -231.302473 
L 163.458978 -233.1239 
L 163.612332 -234.945327 
L 163.786185 -236.766755 
L 163.903308 -238.588182 
L 164.054192 -238.588182 
L 164.054192 -238.588182 
L 164.171315 -236.766755 
L 164.345168 -234.945327 
L 164.498522 -233.1239 
L 164.5284 -231.302473 
L 164.412057 -229.481046 
L 164.2334 -227.659619 
L 164.090315 -225.838191 
L 164.015188 -224.016764 
L 163.987622 -222.195337 
L 163.98036 -220.37391 
L 163.978968 -218.552482 
L 163.978772 -216.731055 
L 163.978752 -214.909628 
L 163.97875 -213.088201 
L 163.97875 -211.266774 
L 163.97875 -209.445346 
L 163.97875 -207.623919 
L 163.97875 -205.802492 
L 163.97875 -203.981065 
L 163.97875 -202.159637 
L 163.97875 -200.33821 
L 163.97875 -198.516783 
L 163.97875 -196.695356 
L 163.97875 -194.873929 
L 163.97875 -193.052501 
L 163.97875 -191.231074 
L 163.97875 -189.409647 
L 163.97875 -187.58822 
L 163.97875 -185.766793 
L 163.97875 -183.945365 
L 163.97875 -182.123938 
L 163.97875 -180.302511 
L 163.97875 -178.481084 
L 163.97875 -176.659656 
L 163.97875 -174.838229 
L 163.978753 -173.016802 
L 163.978787 -171.195375 
L 163.979069 -169.373948 
L 163.980788 -167.55252 
L 163.988513 -165.731093 
L 164.014068 -163.909666 
L 164.076449 -162.088239 
L 164.190265 -160.266812 
L 164.350492 -158.445384 
L 164.533076 -156.623957 
L 164.703326 -154.80253 
L 164.814561 -152.981103 
L 164.826737 -151.159675 
L 164.754425 -149.338248 
L 164.677134 -147.516821 
L 164.68678 -145.695394 
L 164.830043 -143.873967 
L 165.078883 -142.052539 
L 165.338943 -140.231112 
L 165.528723 -138.409685 
L 165.672126 -136.588258 
L 165.867211 -134.76683 
L 166.171721 -132.945403 
L 166.578033 -131.123976 
L 167.077822 -129.302549 
L 167.705981 -127.481122 
L 168.520445 -125.659694 
L 169.502473 -123.838267 
L 170.518013 -122.01684 
L 171.550247 -120.195413 
L 172.918267 -118.373986 
L 175.027089 -116.552558 
L 177.968593 -114.731131 
L 181.563109 -112.909704 
L 185.698605 -111.088277 
L 190.546919 -109.266849 
L 196.56905 -107.445422 
L 204.328085 -105.623995 
L 214.179498 -103.802568 
L 225.867428 -101.981141 
L 238.087144 -100.159713 
L 248.727852 -98.338286 
L 256.230428 -96.516859 
L 260.764692 -94.695432 
L 263.829362 -92.874004 
L 266.442348 -91.052577 
L 267.18575 -89.23115 
L 262.787868 -87.409723 
L 252.043984 -85.588296 
L 237.773132 -83.766868 
L 223.578938 -81.945441 
L 211.021066 -80.124014 
L 200.6489 -78.302587 
L 192.947938 -76.48116 
L 187.634692 -74.659732 
L 183.776524 -72.838305 
L 180.932337 -71.016878 
L 179.296542 -69.195451 
L 178.492813 -67.374023 
L 177.107596 -65.552596 
L 174.138197 -63.731169 
L 170.263043 -61.909742 
L 166.987757 -60.088315 
L 165.077965 -58.266887 
z
" style="stroke: #484848; stroke-width: 3"/>
    </defs>
    <g clip-path="url(#p438dbe8018)">
     <use xlink:href="#md818378d1e" x="0" y="288" style="fill: #cb3335; stroke: #484848; stroke-width: 3"/>
    </g>
   </g>
   <g id="FillBetweenPolyCollection_2">
    <defs>
     <path id="m8e10075fef" d="M 435.391588 -78.601825 
L 408.600912 -78.601825 
L 393.34755 -79.971347 
L 370.696161 -81.340869 
L 345.001524 -82.71039 
L 324.936136 -84.079912 
L 318.78925 -85.449434 
L 328.582859 -86.818956 
L 348.593241 -88.188477 
L 369.793973 -89.557999 
L 385.749178 -90.927521 
L 394.953673 -92.297042 
L 399.192774 -93.666564 
L 400.879749 -95.036086 
L 401.651603 -96.405608 
L 402.295563 -97.775129 
L 403.103295 -99.144651 
L 404.1086 -100.514173 
L 405.203668 -101.883695 
L 406.251147 -103.253216 
L 407.186149 -104.622738 
L 408.046082 -105.99226 
L 408.926488 -107.361782 
L 409.917051 -108.731303 
L 411.058003 -110.100825 
L 412.316601 -111.470347 
L 413.579747 -112.839868 
L 414.686597 -114.20939 
L 415.515285 -115.578912 
L 416.071815 -116.948434 
L 416.494827 -118.317955 
L 416.957418 -119.687477 
L 417.547225 -121.056999 
L 418.221058 -122.426521 
L 418.854392 -123.796042 
L 419.331117 -125.165564 
L 419.607363 -126.535086 
L 419.718865 -127.904608 
L 419.743238 -129.274129 
L 419.753918 -130.643651 
L 419.799404 -132.013173 
L 419.909385 -133.382694 
L 420.099449 -134.752216 
L 420.356682 -136.121738 
L 420.626827 -137.49126 
L 420.834352 -138.860781 
L 420.930974 -140.230303 
L 420.931696 -141.599825 
L 420.904762 -142.969347 
L 420.922884 -144.338868 
L 421.01529 -145.70839 
L 421.156336 -147.077912 
L 421.293587 -148.447433 
L 421.38751 -149.816955 
L 421.432347 -151.186477 
L 421.449721 -152.555999 
L 421.468083 -153.92552 
L 421.50503 -155.295042 
L 421.560654 -156.664564 
L 421.621471 -158.034086 
L 421.67041 -159.403607 
L 421.69703 -160.773129 
L 421.702841 -162.142651 
L 421.699016 -163.512173 
L 421.697191 -164.881694 
L 421.699872 -166.251216 
L 421.70008 -167.620738 
L 421.6919 -168.990259 
L 421.680515 -170.359781 
L 421.680171 -171.729303 
L 421.702761 -173.098825 
L 421.749232 -174.468346 
L 421.810128 -175.837868 
L 421.871899 -177.20739 
L 421.923262 -178.576912 
L 421.958702 -179.946433 
L 421.978328 -181.315955 
L 421.984906 -182.685477 
L 421.980532 -184.054999 
L 421.965643 -185.42452 
L 421.941287 -186.794042 
L 421.912669 -188.163564 
L 421.889828 -189.533085 
L 421.882948 -190.902607 
L 421.895406 -192.272129 
L 421.921208 -193.641651 
L 421.949527 -195.011172 
L 421.971735 -196.380694 
L 421.984709 -197.750216 
L 421.989079 -199.119738 
L 421.985695 -200.489259 
L 421.973864 -201.858781 
L 421.952746 -203.228303 
L 421.924822 -204.597824 
L 421.898099 -205.967346 
L 421.883485 -207.336868 
L 421.887944 -208.70639 
L 421.909288 -210.075911 
L 421.937879 -211.445433 
L 421.963496 -212.814955 
L 421.980885 -214.184477 
L 422.011615 -214.184477 
L 422.011615 -214.184477 
L 422.029004 -212.814955 
L 422.054621 -211.445433 
L 422.083212 -210.075911 
L 422.104556 -208.70639 
L 422.109015 -207.336868 
L 422.094401 -205.967346 
L 422.067678 -204.597824 
L 422.039754 -203.228303 
L 422.018636 -201.858781 
L 422.006805 -200.489259 
L 422.003421 -199.119738 
L 422.007791 -197.750216 
L 422.020765 -196.380694 
L 422.042973 -195.011172 
L 422.071292 -193.641651 
L 422.097094 -192.272129 
L 422.109552 -190.902607 
L 422.102672 -189.533085 
L 422.079831 -188.163564 
L 422.051213 -186.794042 
L 422.026857 -185.42452 
L 422.011968 -184.054999 
L 422.007594 -182.685477 
L 422.014172 -181.315955 
L 422.033798 -179.946433 
L 422.069238 -178.576912 
L 422.120601 -177.20739 
L 422.182372 -175.837868 
L 422.243268 -174.468346 
L 422.289739 -173.098825 
L 422.312329 -171.729303 
L 422.311985 -170.359781 
L 422.3006 -168.990259 
L 422.29242 -167.620738 
L 422.292628 -166.251216 
L 422.295309 -164.881694 
L 422.293484 -163.512173 
L 422.289659 -162.142651 
L 422.29547 -160.773129 
L 422.32209 -159.403607 
L 422.371029 -158.034086 
L 422.431846 -156.664564 
L 422.48747 -155.295042 
L 422.524417 -153.92552 
L 422.542779 -152.555999 
L 422.560153 -151.186477 
L 422.60499 -149.816955 
L 422.698913 -148.447433 
L 422.836164 -147.077912 
L 422.97721 -145.70839 
L 423.069616 -144.338868 
L 423.087738 -142.969347 
L 423.060804 -141.599825 
L 423.061526 -140.230303 
L 423.158148 -138.860781 
L 423.365673 -137.49126 
L 423.635818 -136.121738 
L 423.893051 -134.752216 
L 424.083115 -133.382694 
L 424.193096 -132.013173 
L 424.238582 -130.643651 
L 424.249262 -129.274129 
L 424.273635 -127.904608 
L 424.385137 -126.535086 
L 424.661383 -125.165564 
L 425.138108 -123.796042 
L 425.771442 -122.426521 
L 426.445275 -121.056999 
L 427.035082 -119.687477 
L 427.497673 -118.317955 
L 427.920685 -116.948434 
L 428.477215 -115.578912 
L 429.305903 -114.20939 
L 430.412753 -112.839868 
L 431.675899 -111.470347 
L 432.934497 -110.100825 
L 434.075449 -108.731303 
L 435.066012 -107.361782 
L 435.946418 -105.99226 
L 436.806351 -104.622738 
L 437.741353 -103.253216 
L 438.788832 -101.883695 
L 439.8839 -100.514173 
L 440.889205 -99.144651 
L 441.696937 -97.775129 
L 442.340897 -96.405608 
L 443.112751 -95.036086 
L 444.799726 -93.666564 
L 449.038827 -92.297042 
L 458.243322 -90.927521 
L 474.198527 -89.557999 
L 495.399259 -88.188477 
L 515.409641 -86.818956 
L 525.20325 -85.449434 
L 519.056364 -84.079912 
L 498.990976 -82.71039 
L 473.296339 -81.340869 
L 450.64495 -79.971347 
L 435.391588 -78.601825 
z
" style="stroke: #484848; stroke-width: 3"/>
    </defs>
    <g clip-path="url(#p438dbe8018)">
     <use xlink:href="#m8e10075fef" x="0" y="288" style="fill: #477ca8; stroke: #484848; stroke-width: 3"/>
    </g>
   </g>
   <g id="FillBetweenPolyCollection_3">
    <defs>
     <path id="m6a66283b06" d="M 680.048979 -42.351818 
L 679.978521 -42.351818 
L 679.95724 -43.108491 
L 679.926846 -43.865163 
L 679.885199 -44.621836 
L 679.830113 -45.378508 
L 679.759248 -46.135181 
L 679.669828 -46.891853 
L 679.55824 -47.648526 
L 679.419582 -48.405198 
L 679.247295 -49.161871 
L 679.032925 -49.918543 
L 678.765985 -50.675216 
L 678.433921 -51.431889 
L 678.022196 -52.188561 
L 677.514766 -52.945234 
L 676.895329 -53.701906 
L 676.149751 -54.458579 
L 675.269759 -55.215251 
L 674.257446 -55.971924 
L 673.129523 -56.728596 
L 671.919859 -57.485269 
L 670.67893 -58.241941 
L 669.469433 -58.998614 
L 668.358336 -59.755286 
L 667.406706 -60.511959 
L 666.659392 -61.268631 
L 666.136795 -62.025304 
L 665.830522 -62.781977 
L 665.703937 -63.538649 
L 665.697676 -64.295322 
L 665.739346 -65.051994 
L 665.755835 -65.808667 
L 665.685852 -66.565339 
L 665.489685 -67.322012 
L 665.153062 -68.078684 
L 664.682983 -68.835357 
L 664.095647 -69.592029 
L 663.399675 -70.348702 
L 662.580454 -71.105374 
L 661.592033 -71.862047 
L 660.360945 -72.618719 
L 658.801913 -73.375392 
L 656.840723 -74.132064 
L 654.436678 -74.888737 
L 651.597465 -75.64541 
L 648.382475 -76.402082 
L 644.894994 -77.158755 
L 641.26696 -77.915427 
L 637.641136 -78.6721 
L 634.154641 -79.428772 
L 630.926115 -80.185445 
L 628.047306 -80.942117 
L 625.57908 -81.69879 
L 623.551363 -82.455462 
L 621.966114 -83.212135 
L 620.802035 -83.968807 
L 620.019876 -84.72548 
L 619.568083 -85.482152 
L 619.389726 -86.238825 
L 619.43209 -86.995497 
L 619.659091 -87.75217 
L 620.06384 -88.508843 
L 620.675841 -89.265515 
L 621.55642 -90.022188 
L 622.778845 -90.77886 
L 624.395576 -91.535533 
L 626.401776 -92.292205 
L 628.708009 -93.048878 
L 631.133486 -93.80555 
L 633.424391 -94.562223 
L 635.292616 -95.318895 
L 636.462817 -96.075568 
L 636.713399 -96.83224 
L 635.900475 -97.588913 
L 633.9612 -98.345585 
L 630.900744 -99.102258 
L 626.772691 -99.85893 
L 621.664225 -100.615603 
L 615.695212 -101.372276 
L 609.034978 -102.128948 
L 601.933463 -102.885621 
L 594.755793 -103.642293 
L 588.003332 -104.398966 
L 582.302655 -105.155638 
L 578.349374 -105.912311 
L 576.80675 -106.668983 
L 578.17656 -107.425656 
L 582.675158 -108.182328 
L 590.153359 -108.939001 
L 600.090243 -109.695673 
L 611.669605 -110.452346 
L 623.921482 -111.209018 
L 635.890609 -111.965691 
L 646.787025 -112.722364 
L 656.083313 -113.479036 
L 663.543112 -114.235709 
L 669.187517 -114.992381 
L 673.221623 -115.749054 
L 675.948527 -116.505726 
L 677.693533 -117.262399 
L 682.333967 -117.262399 
L 682.333967 -117.262399 
L 684.078973 -116.505726 
L 686.805877 -115.749054 
L 690.839983 -114.992381 
L 696.484388 -114.235709 
L 703.944187 -113.479036 
L 713.240475 -112.722364 
L 724.136891 -111.965691 
L 736.106018 -111.209018 
L 748.357895 -110.452346 
L 759.937257 -109.695673 
L 769.874141 -108.939001 
L 777.352342 -108.182328 
L 781.85094 -107.425656 
L 783.22075 -106.668983 
L 781.678126 -105.912311 
L 777.724845 -105.155638 
L 772.024168 -104.398966 
L 765.271707 -103.642293 
L 758.094037 -102.885621 
L 750.992522 -102.128948 
L 744.332288 -101.372276 
L 738.363275 -100.615603 
L 733.254809 -99.85893 
L 729.126756 -99.102258 
L 726.0663 -98.345585 
L 724.127025 -97.588913 
L 723.314101 -96.83224 
L 723.564683 -96.075568 
L 724.734884 -95.318895 
L 726.603109 -94.562223 
L 728.894014 -93.80555 
L 731.319491 -93.048878 
L 733.625724 -92.292205 
L 735.631924 -91.535533 
L 737.248655 -90.77886 
L 738.47108 -90.022188 
L 739.351659 -89.265515 
L 739.96366 -88.508843 
L 740.368409 -87.75217 
L 740.59541 -86.995497 
L 740.637774 -86.238825 
L 740.459417 -85.482152 
L 740.007624 -84.72548 
L 739.225465 -83.968807 
L 738.061386 -83.212135 
L 736.476137 -82.455462 
L 734.44842 -81.69879 
L 731.980194 -80.942117 
L 729.101385 -80.185445 
L 725.872859 -79.428772 
L 722.386364 -78.6721 
L 718.76054 -77.915427 
L 715.132506 -77.158755 
L 711.645025 -76.402082 
L 708.430035 -75.64541 
L 705.590822 -74.888737 
L 703.186777 -74.132064 
L 701.225587 -73.375392 
L 699.666555 -72.618719 
L 698.435467 -71.862047 
L 697.447046 -71.105374 
L 696.627825 -70.348702 
L 695.931853 -69.592029 
L 695.344517 -68.835357 
L 694.874438 -68.078684 
L 694.537815 -67.322012 
L 694.341648 -66.565339 
L 694.271665 -65.808667 
L 694.288154 -65.051994 
L 694.329824 -64.295322 
L 694.323563 -63.538649 
L 694.196978 -62.781977 
L 693.890705 -62.025304 
L 693.368108 -61.268631 
L 692.620794 -60.511959 
L 691.669164 -59.755286 
L 690.558067 -58.998614 
L 689.34857 -58.241941 
L 688.107641 -57.485269 
L 686.897977 -56.728596 
L 685.770054 -55.971924 
L 684.757741 -55.215251 
L 683.877749 -54.458579 
L 683.132171 -53.701906 
L 682.512734 -52.945234 
L 682.005304 -52.188561 
L 681.593579 -51.431889 
L 681.261515 -50.675216 
L 680.994575 -49.918543 
L 680.780205 -49.161871 
L 680.607918 -48.405198 
L 680.46926 -47.648526 
L 680.357672 -46.891853 
L 680.268252 -46.135181 
L 680.197387 -45.378508 
L 680.142301 -44.621836 
L 680.100654 -43.865163 
L 680.07026 -43.108491 
L 680.048979 -42.351818 
z
" style="stroke: #484848; stroke-width: 3"/>
    </defs>
    <g clip-path="url(#p438dbe8018)">
     <use xlink:href="#m6a66283b06" x="0" y="288" style="fill: #59a257; stroke: #484848; stroke-width: 3"/>
    </g>
   </g>
   <g id="FillBetweenPolyCollection_4">
    <defs>
     <path id="md8f9a3db92" d="M 938.158952 -61.046258 
L 937.903548 -61.046258 
L 937.716305 -62.447581 
L 937.357379 -63.848905 
L 936.752581 -65.250228 
L 935.816635 -66.651551 
L 934.41568 -68.052874 
L 932.315716 -69.454197 
L 929.177752 -70.85552 
L 924.651055 -72.256844 
L 918.524035 -73.658167 
L 910.787736 -75.05949 
L 901.520717 -76.460813 
L 890.74874 -77.862136 
L 878.560262 -79.263459 
L 865.500415 -80.664783 
L 852.881077 -82.066106 
L 842.59359 -83.467429 
L 836.357974 -84.868752 
L 834.82425 -86.270075 
L 837.215182 -87.671399 
L 841.906546 -89.072722 
L 847.533955 -90.474045 
L 853.670816 -91.875368 
L 860.538578 -93.276691 
L 868.191523 -94.678014 
L 876.067202 -96.079338 
L 883.279378 -97.480661 
L 889.241179 -98.881984 
L 893.987569 -100.283307 
L 897.978489 -101.68463 
L 901.659276 -103.085954 
L 905.190749 -104.487277 
L 908.517245 -105.8886 
L 911.597688 -107.289923 
L 914.506589 -108.691246 
L 917.309136 -110.092569 
L 919.895976 -111.493893 
L 922.017851 -112.895216 
L 923.527123 -114.296539 
L 924.574926 -115.697862 
L 925.537255 -117.099185 
L 926.732643 -118.500508 
L 928.201857 -119.901832 
L 929.720459 -121.303155 
L 930.98208 -122.704478 
L 931.79387 -124.105801 
L 932.176797 -125.507124 
L 932.334943 -126.908448 
L 932.521453 -128.309771 
L 932.892057 -129.711094 
L 933.443779 -131.112417 
L 934.063423 -132.51374 
L 934.628744 -133.915063 
L 935.083682 -135.316387 
L 935.446018 -136.71771 
L 935.762239 -138.119033 
L 936.059809 -139.520356 
L 936.336427 -140.921679 
L 936.582037 -142.323003 
L 936.798998 -143.724326 
L 936.999279 -145.125649 
L 937.189925 -146.526972 
L 937.366045 -147.928295 
L 937.513368 -149.329618 
L 937.612847 -150.730942 
L 937.647379 -152.132265 
L 937.613666 -153.533588 
L 937.532505 -154.934911 
L 937.445422 -156.336234 
L 937.395128 -157.737557 
L 937.402252 -159.138881 
L 937.456207 -160.540204 
L 937.526705 -161.941527 
L 937.583774 -163.34285 
L 937.610464 -164.744173 
L 937.606636 -166.145497 
L 937.589454 -167.54682 
L 937.587642 -168.948143 
L 937.625211 -170.349466 
L 937.704504 -171.750789 
L 937.804702 -173.152112 
L 937.897422 -174.553436 
L 937.964351 -175.954759 
L 938.003071 -177.356082 
L 938.021207 -178.757405 
L 938.027832 -180.158728 
L 938.028466 -181.560051 
L 938.023668 -182.961375 
L 938.008802 -184.362698 
L 937.974687 -185.764021 
L 937.911819 -187.165344 
L 937.81989 -188.566667 
L 937.717444 -189.967991 
L 937.640083 -191.369314 
L 937.621681 -192.770637 
L 937.671006 -194.17196 
L 937.765144 -195.573283 
L 937.866269 -196.974606 
L 937.945478 -198.37593 
L 937.993897 -199.777253 
L 938.068603 -199.777253 
L 938.068603 -199.777253 
L 938.117022 -198.37593 
L 938.196231 -196.974606 
L 938.297356 -195.573283 
L 938.391494 -194.17196 
L 938.440819 -192.770637 
L 938.422417 -191.369314 
L 938.345056 -189.967991 
L 938.24261 -188.566667 
L 938.150681 -187.165344 
L 938.087813 -185.764021 
L 938.053698 -184.362698 
L 938.038832 -182.961375 
L 938.034034 -181.560051 
L 938.034668 -180.158728 
L 938.041293 -178.757405 
L 938.059429 -177.356082 
L 938.098149 -175.954759 
L 938.165078 -174.553436 
L 938.257798 -173.152112 
L 938.357996 -171.750789 
L 938.437289 -170.349466 
L 938.474858 -168.948143 
L 938.473046 -167.54682 
L 938.455864 -166.145497 
L 938.452036 -164.744173 
L 938.478726 -163.34285 
L 938.535795 -161.941527 
L 938.606293 -160.540204 
L 938.660248 -159.138881 
L 938.667372 -157.737557 
L 938.617078 -156.336234 
L 938.529995 -154.934911 
L 938.448834 -153.533588 
L 938.415121 -152.132265 
L 938.449653 -150.730942 
L 938.549132 -149.329618 
L 938.696455 -147.928295 
L 938.872575 -146.526972 
L 939.063221 -145.125649 
L 939.263502 -143.724326 
L 939.480463 -142.323003 
L 939.726073 -140.921679 
L 940.002691 -139.520356 
L 940.300261 -138.119033 
L 940.616482 -136.71771 
L 940.978818 -135.316387 
L 941.433756 -133.915063 
L 941.999077 -132.51374 
L 942.618721 -131.112417 
L 943.170443 -129.711094 
L 943.541047 -128.309771 
L 943.727557 -126.908448 
L 943.885703 -125.507124 
L 944.26863 -124.105801 
L 945.08042 -122.704478 
L 946.342041 -121.303155 
L 947.860643 -119.901832 
L 949.329857 -118.500508 
L 950.525245 -117.099185 
L 951.487574 -115.697862 
L 952.535377 -114.296539 
L 954.044649 -112.895216 
L 956.166524 -111.493893 
L 958.753364 -110.092569 
L 961.555911 -108.691246 
L 964.464812 -107.289923 
L 967.545255 -105.8886 
L 970.871751 -104.487277 
L 974.403224 -103.085954 
L 978.084011 -101.68463 
L 982.074931 -100.283307 
L 986.821321 -98.881984 
L 992.783122 -97.480661 
L 999.995298 -96.079338 
L 1007.870977 -94.678014 
L 1015.523922 -93.276691 
L 1022.391684 -91.875368 
L 1028.528545 -90.474045 
L 1034.155954 -89.072722 
L 1038.847318 -87.671399 
L 1041.23825 -86.270075 
L 1039.704526 -84.868752 
L 1033.46891 -83.467429 
L 1023.181423 -82.066106 
L 1010.562085 -80.664783 
L 997.502238 -79.263459 
L 985.31376 -77.862136 
L 974.541783 -76.460813 
L 965.274764 -75.05949 
L 957.538465 -73.658167 
L 951.411445 -72.256844 
L 946.884748 -70.85552 
L 943.746784 -69.454197 
L 941.64682 -68.052874 
L 940.245865 -66.651551 
L 939.309919 -65.250228 
L 938.705121 -63.848905 
L 938.346195 -62.447581 
L 938.158952 -61.046258 
z
" style="stroke: #484848; stroke-width: 3"/>
    </defs>
    <g clip-path="url(#p438dbe8018)">
     <use xlink:href="#md8f9a3db92" x="0" y="288" style="fill: #905998; stroke: #484848; stroke-width: 3"/>
    </g>
   </g>
   <g id="line2d_13">
    <path d="M 163.97875 217.868025 
L 163.97875 171.57649 
" clip-path="url(#p438dbe8018)" style="fill: none; stroke: #484848; stroke-width: 4.5; stroke-linecap: round"/>
   </g>
   <g id="line2d_14">
    <path d="M 163.97875 201.294512 
L 163.97875 189.293003 
" clip-path="url(#p438dbe8018)" style="fill: none; stroke: #484848; stroke-width: 13.5; stroke-linecap: round"/>
   </g>
   <g id="line2d_15">
    <path d="M 163.97875 195.579508 
" clip-path="url(#p438dbe8018)" style="fill: none; stroke: #484848; stroke-width: 1.5; stroke-linecap: round"/>
    <defs>
     <path id="mbb5dfd7300" d="M 5.625 0 
L -5.625 -0 
" style="stroke: #ffffff; stroke-width: 2.7"/>
    </defs>
    <g clip-path="url(#p438dbe8018)">
     <use xlink:href="#mbb5dfd7300" x="163.97875" y="195.579508" style="fill: #ffffff; stroke: #ffffff; stroke-width: 2.7"/>
    </g>
   </g>
   <g id="line2d_16">
    <path d="M 421.99625 202.926944 
L 421.99625 171.117145 
" clip-path="url(#p438dbe8018)" style="fill: none; stroke: #484848; stroke-width: 4.5; stroke-linecap: round"/>
   </g>
   <g id="line2d_17">
    <path d="M 421.99625 202.926944 
L 421.99625 190.203024 
" clip-path="url(#p438dbe8018)" style="fill: none; stroke: #484848; stroke-width: 13.5; stroke-linecap: round"/>
   </g>
   <g id="line2d_18">
    <path d="M 421.99625 202.926944 
" clip-path="url(#p438dbe8018)" style="fill: none; stroke: #484848; stroke-width: 1.5; stroke-linecap: round"/>
    <g clip-path="url(#p438dbe8018)">
     <use xlink:href="#mbb5dfd7300" x="421.99625" y="202.926944" style="fill: #ffffff; stroke: #ffffff; stroke-width: 2.7"/>
    </g>
   </g>
   <g id="line2d_19">
    <path d="M 680.01375 239.109844 
L 680.01375 177.275939 
" clip-path="url(#p438dbe8018)" style="fill: none; stroke: #484848; stroke-width: 4.5; stroke-linecap: round"/>
   </g>
   <g id="line2d_20">
    <path d="M 680.01375 204.820133 
L 680.01375 181.772951 
" clip-path="url(#p438dbe8018)" style="fill: none; stroke: #484848; stroke-width: 13.5; stroke-linecap: round"/>
   </g>
   <g id="line2d_21">
    <path d="M 680.01375 194.139731 
" clip-path="url(#p438dbe8018)" style="fill: none; stroke: #484848; stroke-width: 1.5; stroke-linecap: round"/>
    <g clip-path="url(#p438dbe8018)">
     <use xlink:href="#mbb5dfd7300" x="680.01375" y="194.139731" style="fill: #ffffff; stroke: #ffffff; stroke-width: 2.7"/>
    </g>
   </g>
   <g id="line2d_22">
    <path d="M 938.03125 220.489618 
L 938.03125 167.188107 
" clip-path="url(#p438dbe8018)" style="fill: none; stroke: #484848; stroke-width: 4.5; stroke-linecap: round"/>
   </g>
   <g id="line2d_23">
    <path d="M 938.03125 203.879847 
L 938.03125 189.20053 
" clip-path="url(#p438dbe8018)" style="fill: none; stroke: #484848; stroke-width: 13.5; stroke-linecap: round"/>
   </g>
   <g id="line2d_24">
    <path d="M 938.03125 198.110321 
" clip-path="url(#p438dbe8018)" style="fill: none; stroke: #484848; stroke-width: 1.5; stroke-linecap: round"/>
    <g clip-path="url(#p438dbe8018)">
     <use xlink:href="#mbb5dfd7300" x="938.03125" y="198.110321" style="fill: #ffffff; stroke: #ffffff; stroke-width: 2.7"/>
    </g>
   </g>
   <g id="patch_3">
    <path d="M 34.97 255.46 
L 34.97 39.6 
" style="fill: none; stroke: #262626; stroke-width: 1.25; stroke-linejoin: miter; stroke-linecap: square"/>
   </g>
   <g id="patch_4">
    <path d="M 1067.04 255.46 
L 1067.04 39.6 
" style="fill: none; stroke: #262626; stroke-width: 1.25; stroke-linejoin: miter; stroke-linecap: square"/>
   </g>
   <g id="patch_5">
    <path d="M 34.97 255.46 
L 1067.04 255.46 
" style="fill: none; stroke: #262626; stroke-width: 1.25; stroke-linejoin: miter; stroke-linecap: square"/>
   </g>
   <g id="patch_6">
    <path d="M 34.97 39.6 
L 1067.04 39.6 
" style="fill: none; stroke: #262626; stroke-width: 1.25; stroke-linejoin: miter; stroke-linecap: square"/>
   </g>
  </g>
  <g id="text_13">
   <!-- Violin Plot of all Continuous Variables -->
   <g style="fill: #262626" transform="translate(416.035547 16.496719) scale(0.15 -0.15)">
    <defs>
     <path id="ArialMT-20" transform="scale(0.015625)"/>
     <path id="ArialMT-66" d="M 556 0 
L 556 2881 
L 59 2881 
L 59 3319 
L 556 3319 
L 556 3672 
Q 556 4006 616 4169 
Q 697 4388 901 4523 
Q 1106 4659 1475 4659 
Q 1713 4659 2000 4603 
L 1916 4113 
Q 1741 4144 1584 4144 
Q 1328 4144 1222 4034 
Q 1116 3925 1116 3625 
L 1116 3319 
L 1763 3319 
L 1763 2881 
L 1116 2881 
L 1116 0 
L 556 0 
z
" transform="scale(0.015625)"/>
     <path id="ArialMT-43" d="M 3763 1606 
L 4369 1453 
Q 4178 706 3683 314 
Q 3188 -78 2472 -78 
Q 1731 -78 1267 223 
Q 803 525 561 1097 
Q 319 1669 319 2325 
Q 319 3041 592 3573 
Q 866 4106 1370 4382 
Q 1875 4659 2481 4659 
Q 3169 4659 3637 4309 
Q 4106 3959 4291 3325 
L 3694 3184 
Q 3534 3684 3231 3912 
Q 2928 4141 2469 4141 
Q 1941 4141 1586 3887 
Q 1231 3634 1087 3207 
Q 944 2781 944 2328 
Q 944 1744 1114 1308 
Q 1284 872 1643 656 
Q 2003 441 2422 441 
Q 2931 441 3284 734 
Q 3638 1028 3763 1606 
z
" transform="scale(0.015625)"/>
     <path id="ArialMT-75" d="M 2597 0 
L 2597 488 
Q 2209 -75 1544 -75 
Q 1250 -75 995 37 
Q 741 150 617 320 
Q 494 491 444 738 
Q 409 903 409 1263 
L 409 3319 
L 972 3319 
L 972 1478 
Q 972 1038 1006 884 
Q 1059 663 1231 536 
Q 1403 409 1656 409 
Q 1909 409 2131 539 
Q 2353 669 2445 892 
Q 2538 1116 2538 1541 
L 2538 3319 
L 3100 3319 
L 3100 0 
L 2597 0 
z
" transform="scale(0.015625)"/>
     <path id="ArialMT-62" d="M 941 0 
L 419 0 
L 419 4581 
L 981 4581 
L 981 2947 
Q 1338 3394 1891 3394 
Q 2197 3394 2470 3270 
Q 2744 3147 2920 2923 
Q 3097 2700 3197 2384 
Q 3297 2069 3297 1709 
Q 3297 856 2875 390 
Q 2453 -75 1863 -75 
Q 1275 -75 941 416 
L 941 0 
z
M 934 1684 
Q 934 1088 1097 822 
Q 1363 388 1816 388 
Q 2184 388 2453 708 
Q 2722 1028 2722 1663 
Q 2722 2313 2464 2622 
Q 2206 2931 1841 2931 
Q 1472 2931 1203 2611 
Q 934 2291 934 1684 
z
" transform="scale(0.015625)"/>
    </defs>
    <use xlink:href="#ArialMT-56"/>
    <use xlink:href="#ArialMT-69" transform="translate(64.949219 0)"/>
    <use xlink:href="#ArialMT-6f" transform="translate(87.166016 0)"/>
    <use xlink:href="#ArialMT-6c" transform="translate(142.78125 0)"/>
    <use xlink:href="#ArialMT-69" transform="translate(164.998047 0)"/>
    <use xlink:href="#ArialMT-6e" transform="translate(187.214844 0)"/>
    <use xlink:href="#ArialMT-20" transform="translate(242.830078 0)"/>
    <use xlink:href="#ArialMT-50" transform="translate(270.613281 0)"/>
    <use xlink:href="#ArialMT-6c" transform="translate(337.3125 0)"/>
    <use xlink:href="#ArialMT-6f" transform="translate(359.529297 0)"/>
    <use xlink:href="#ArialMT-74" transform="translate(415.144531 0)"/>
    <use xlink:href="#ArialMT-20" transform="translate(442.927734 0)"/>
    <use xlink:href="#ArialMT-6f" transform="translate(470.710938 0)"/>
    <use xlink:href="#ArialMT-66" transform="translate(526.326172 0)"/>
    <use xlink:href="#ArialMT-20" transform="translate(554.109375 0)"/>
    <use xlink:href="#ArialMT-61" transform="translate(581.892578 0)"/>
    <use xlink:href="#ArialMT-6c" transform="translate(637.507812 0)"/>
    <use xlink:href="#ArialMT-6c" transform="translate(659.724609 0)"/>
    <use xlink:href="#ArialMT-20" transform="translate(681.941406 0)"/>
    <use xlink:href="#ArialMT-43" transform="translate(709.724609 0)"/>
    <use xlink:href="#ArialMT-6f" transform="translate(781.941406 0)"/>
    <use xlink:href="#ArialMT-6e" transform="translate(837.556641 0)"/>
    <use xlink:href="#ArialMT-74" transform="translate(893.171875 0)"/>
    <use xlink:href="#ArialMT-69" transform="translate(920.955078 0)"/>
    <use xlink:href="#ArialMT-6e" transform="translate(943.171875 0)"/>
    <use xlink:href="#ArialMT-75" transform="translate(998.787109 0)"/>
    <use xlink:href="#ArialMT-6f" transform="translate(1054.402344 0)"/>
    <use xlink:href="#ArialMT-75" transform="translate(1110.017578 0)"/>
    <use xlink:href="#ArialMT-73" transform="translate(1165.632812 0)"/>
    <use xlink:href="#ArialMT-20" transform="translate(1215.632812 0)"/>
    <use xlink:href="#ArialMT-56" transform="translate(1243.416016 0)"/>
    <use xlink:href="#ArialMT-61" transform="translate(1302.740234 0)"/>
    <use xlink:href="#ArialMT-72" transform="translate(1358.355469 0)"/>
    <use xlink:href="#ArialMT-69" transform="translate(1391.65625 0)"/>
    <use xlink:href="#ArialMT-61" transform="translate(1413.873047 0)"/>
    <use xlink:href="#ArialMT-62" transform="translate(1469.488281 0)"/>
    <use xlink:href="#ArialMT-6c" transform="translate(1525.103516 0)"/>
    <use xlink:href="#ArialMT-65" transform="translate(1547.320312 0)"/>
    <use xlink:href="#ArialMT-73" transform="translate(1602.935547 0)"/>
   </g>
  </g>
 </g>
 <defs>
  <clipPath id="p438dbe8018">
   <rect x="34.97" y="39.6" width="1032.07" height="215.86"/>
  </clipPath>
 </defs>
</svg>
